<?xml version="1.0" encoding="UTF-8" standalone="no"?>
<!-- Created with Inkscape (http://www.inkscape.org/) -->

<svg
   width="128"
   height="128"
   viewBox="0 0 33.866665 33.866665"
   version="1.1"
   id="svg920"
   xmlns="http://www.w3.org/2000/svg"
   xmlns:svg="http://www.w3.org/2000/svg">
  <defs
     id="defs917" />
  <g
     id="layer1"
     transform="matrix(0.77492164,0,0,0.7749225,3.8113323,3.8112912)">
    <path
       id="path1085"
       style="color:#000000;fill:#000000;fill-opacity:1;fill-rule:evenodd"
       d="m 31.717444,0.54673665 a 1.5614923,1.328362 44.999997 0 0 -0.412378,0.0397909 L 21.726839,3.0737142 a 1.9301106,1.6419457 44.999997 0 0 -0.459403,2.9005981 l 1.441772,1.4417725 -5.529378,5.5293782 3.74034,3.741891 5.530929,-5.529379 1.441255,1.441256 a 1.9301106,1.6419457 44.999997 0 0 2.900598,-0.459404 L 33.280139,2.5616007 A 1.5614923,1.328362 44.999997 0 0 31.717444,0.54673665 Z" />
    <g
       id="g1079"
       style="fill:#000000;fill-opacity:1" />
    <path
       id="path1105"
       style="color:#000000;fill:#000000;fill-opacity:1;fill-rule:evenodd"
       d="M 12.945463,17.17983 7.4160848,22.709208 5.9743123,21.267436 a 1.9301106,1.6419457 45.000003 0 0 -2.9005981,0.459403 l -2.48718669,9.578227 a 1.5614923,1.328362 45.000003 0 0 1.97507319,1.975073 l 9.5782263,-2.487187 a 1.9301106,1.6419457 45.000003 0 0 0.459404,-2.900598 l -1.441256,-1.441255 5.529379,-5.530929 z" />
    <g
       id="g1099"
       style="fill:#000000;fill-opacity:1" />
  </g>
</svg>
